<svg xmlns="http://www.w3.org/2000/svg" xmlns:xlink="http://www.w3.org/1999/xlink" width="1268.142" height="875.069" viewBox="0 0 1268.142 875.069">
  <defs>
    <linearGradient id="linear-gradient" x1="0.5" x2="0.5" y2="0.515" gradientUnits="objectBoundingBox">
      <stop offset="0" stop-color="#e84d10"/>
      <stop offset="1" stop-color="#f59b2e"/>
    </linearGradient>
  </defs>
  <g id="Logo-Festival-v-Telci-2" transform="translate(-6029.326 -783)">
    <path id="Ellipse_1" data-name="Ellipse 1" d="M504.222,0c278.473,0,504.222,225.751,504.222,504.222s-219.025,193.049-497.5,193.049S0,782.695,0,504.222,225.751,0,504.222,0Z" transform="translate(6161.863 783)" fill="url(#linear-gradient)"/>
    <path id="Intersection_1" data-name="Intersection 1" d="M43.737,411.525A502.342,502.342,0,0,1,0,210.333H1008.4a502.342,502.342,0,0,1-43.736,201.191ZM.9,175q1.035-17.2,3.207-34.089h1000.18q2.171,16.875,3.209,34.085Zm9.195-70.25q3.511-17.27,8.182-34.085h971.84q4.665,16.823,8.182,34.085Zm19.86-70.665Q36.238,16.749,43.737,0H964.666q7.483,16.72,13.777,34.087Z" transform="translate(6161.882 1081.459)" fill="#510047"/>
    <path id="Path_3" data-name="Path 3" d="M2671.655,1639.966V1416.494L2668,1404.856v-2.994l16.627-14.3-2.661-5.653v-11.971l1.208-10.028,4.54-9.083,7.267-8.023,6.206-4.54-2.724-8.779v-3.028l1.809-2.422h2.422v-11.2l-2.422-3.632-1.809-4.238v-3.936l1.809-3.026,2.422-1.06h.9v-8.93l2.724-3.33,3.784-3.936,5.3-4.54,2.876-3.028.9-2.724V1253.2l-3.028-2.572-1.809-4.844,1.06-4.844,3.785-3.178v-21.191l2.572-1.664h2.725l2.422.9,1.514,1.664v20.285l3.33,1.968,1.514,3.482v3.482l-1.514,3.026-1.809,2.27-1.514,1.21v17.255l1.514,2.724,1.809,3.028,5.449,3.632,3.936,4.086,2.572,4.086,1.514,3.178v2.12l-1.514,4.692h3.331l2.422,3.026v2.422l-1.514,4.692-.9,3.33-3.331,1.362h1.514v10.445l2.724.756,1.514,2.422v3.028l-1.514,4.39-1.809,4.39,7.72,5.607,5.3,5.9,3.482,6.054,2.724,6.66,1.514,7.455v7.53l-1.514,5.608-2.724,4.495,13.024,10.492,3.784,3.81v2.994l-1.21,5.155-1.664,6.483v106.586H2917.2V1416.508l-2.876-9.661v-4.971l2.876-2.6,12.867-11.7-3.028-7.673-.756-8.173.756-4.39,1.514-6.054,2.876-6.812,4.994-6.962,4.844-4.692,5.448-4.54-1.06-2.876-1.968-5.9,1.06-4.086,3.482-2.12v-10.445l-2.572-3.633-1.968-7.416,1.06-2.724,4.391-2.12-.416-5.752,1.93-5.448,5.608-5.9,6.66-5.146,2.27-4.238v-17.255l-3.632-2.572-1.362-4.844v-3.784l2.725-4.238,2.27-.756v-19.525l1.809-1.664,3.331-.9,3.026.9,1.06,2.422v18.769l1.514,1.664,2.422,3.33v7.72l-2.422,2.27-1.514,2.422v16.045l1.514,4.238,4.994,3.936,6.513,5.3,2.118,4.086,1.06,3.178-1.06,5.752,3.028,1.06,1.664,1.968,1.06,3.482-1.06,4.692-1.664,2.422-1.968,2.27V1323.3l3.632,2.12s1.21,1.21,1.06,2.118-1.06,5.448-1.06,5.448l-2.725,5.3,8.023,5.607,6.81,6.962,3.178,6.962,2.422,9.537v12.563l-2.422,7.076,14.229,13.813,1.664,2.27-1.664,4.692a71.9,71.9,0,0,1-1.514,8.753c-.454.479,0,10.311,0,10.311l.416,135.168H3191.84l36.325,31.889V1420.354l.825-1.653,1.241-1.1,1.447-.827h9.922v-16.189l-2.686-2.686-2.688-4s-2.548-4.408-2.687-4.754-.9-3.307-.9-3.307l.9-3.032,2.687-1.99,6.46-3.394,6.063-5.237,5.306-6.545,4.685-8.061,4.066-8.956,3.169-8.683s1.378-5.924,1.378-6.2-1.378-3.437-1.378-3.437l-5.306-10.815s-2.274-4.884-1.93-5.306a14.67,14.67,0,0,0-.543-4.133l.543-3.858,1.378-2.48,4.2-3.238,3.771-6.029,1.516-8.612.62-11.85s.9-8.406,1.1-8.683,2.066-6.132,2.342-6.545,2.342-3.169,2.548-3.513a17.365,17.365,0,0,1,1.378-1.516l-1.378-2.825s-1.035-2.757-1.035-3.032,1.035-1.99,1.035-2.274a25.113,25.113,0,0,1,3.307-2.411l3.515-4.271,2.755-6.545,1.1-5.788v-4.271l-1.825-2.963a29.374,29.374,0,0,1-1.516-2.963v-3.721a12.288,12.288,0,0,1,.621-3.1c.345-.344,2.273-2.894,2.273-2.894l3.169-3.583,3.513-2.755.689-1.447s.206-16.461.344-16.879.758-2.136.758-2.136,1.584-1.17,1.859-1.31a17.469,17.469,0,0,1,1.991-.414,11.166,11.166,0,0,0,1.989.414c.275-.068,1.722,1.171,1.86,1.31q.453.805.826,1.653v4.548s-.069,12.539,0,12.814,1.17,2.068,1.17,2.068a32.261,32.261,0,0,1,2.687,2.136,34.794,34.794,0,0,0,3.513,3.583,7.783,7.783,0,0,1,2.205,2.894c.137.758.9,3.652.9,4.2a18.165,18.165,0,0,1-.413,3.238c-.206.62-1.31,2.411-1.584,3.032a33.69,33.69,0,0,1-2.274,3.1s.449,3.272.517,3.961.655,4.754.655,4.754,2.1,5.305,2.205,5.649a40.879,40.879,0,0,0,2.928,4.271c.275.206,2.48,2.343,2.755,2.549s2.343,1.791,2.343,1.791a9.778,9.778,0,0,1,.542,1.756c0,.378-.827,1.756-.542,2.033s-.543,2.549-.543,2.549l-.758,1.266s3.582,4.161,3.582,4.445,3.1,9.851,3.1,9.851.415,4.685.415,5.96.758,10.783.758,11.2,1.17,5.443,1.17,5.926,2.2,6.545,2.274,6.821,2.755,2.894,3.1,3.307,2.963,1.99,3.1,2.48,1.584,1.791,1.584,2.48v8.44l-3.289,6.959s-1.722,3.1-2.205,4.064-2.687,5.237-2.826,5.718a12.205,12.205,0,0,0-.689,3.1c.069.827,1.447,5.58,1.653,6.132s3.859,10.886,4.065,11.577,5.924,9.92,5.924,10.749,7.1,9.267,7.1,9.267,4.616,4.16,4.685,4.445a42.747,42.747,0,0,0,4.342,2.617l3.789,1.568,2.342,2.429a8.938,8.938,0,0,1,1.241,2.2c0,.483-.758,3.272-.827,3.7a51.489,51.489,0,0,1-2.755,4.358s-2.1,2.86-2.514,3.272a35.893,35.893,0,0,0-2.825,2.963c-.069.275-.484,3.169-.484,3.515s.483,13.52.483,13.52h9.714l2.618,1.774,1.035,2.686-.053,225.478-5.443,3.169-7.371,4.133-9.991,4.884-5.855,2.48s-2.617.964-2.895,1.033-6.89-1.86-6.89-1.86l-11.3-2.825-18.326-5.718-10.747-4.271-10.472-4.616-8.956-4.408-9.37-5.305-10.13-6.613-7.854-5.718-3.307-3.1-1.653-.774s-1.1.206-1.376,0-2.136.774-2.136.774-1.1,1.912-1.31,2.324-1.722,2.48-1.928,2.755-1.378,1.791-1.516,2.067a3.952,3.952,0,0,1-1.584,1.033,16.872,16.872,0,0,1-2.205-1.033,7.659,7.659,0,0,1-1.859-1.31c-.621-.689-1.86-2.171-2.343-2.739s-1.791-2.084-2.067-2.352l-2.134-2.136s-1.1-1.378-1.378-1.447a14.422,14.422,0,0,1-1.584-.9l-1.585.9a29.9,29.9,0,0,0-2.342,2.48,13.446,13.446,0,0,1-1.583,2.067c-.346.275-1.722,1.653-2.068,1.99a29.966,29.966,0,0,1-2.411,2.136c-.207.069-1.447,1.241-1.722,1.31a11.242,11.242,0,0,0-1.99.543,3.436,3.436,0,0,1-1.99.481c-.9-.069-1.654-.827-2.687-1.033a15.284,15.284,0,0,1-3.513-1.653c-.415-.275-1.99-2.514-2.343-2.393a24.169,24.169,0,0,1-3.858-2.352s-4.616-2.352-4.884-2.48-5.718-1.722-6.063-1.99-3.032.9-3.032.9l-1.99,2.842-3.014,3.1-6.752,5.788-9.438,6.476s-9.164,5.1-9.439,5.305-10.817,6.064-10.817,6.064l-9.026,3.1s-6.2.964-6.682.9-4.823-.827-5.306-.9-8.406-3.1-8.406-3.1-13.024-7.779-13.435-8.129-8.683-4.754-8.683-4.754l-3.375-1.239H3075.5l-2.755,1.859-3.032,1.93-2.548-2.549-6.442-5.246-6.821-5.168-6.89-3.927-8.267-4.2-3.927-2.274-3.238-.621-5.306.621s-3.513,1.033-4,1.1-4.271,1.17-4.271,1.17h-3.418l-3.169-2.274s-2.963-4-3.307-4.273-3.583-2.617-3.927-2.825-3.437-2.549-4-2.755-7.371-2.136-7.371-2.136-4.065-.827-5.306-.964-9.094-.964-9.094-.964-7.992-.964-8.4-1.033-6.407-1.31-6.821-1.585-6.332-2.963-6.614-3.1-4.479-3.169-4.479-3.169-36.7-36.514-36.841-37.066a57.73,57.73,0,0,0-5.031-5.029l-4.2-4.064-3.1-2.757-2.963-1.99h-2.205s-1.584.414-1.722.827-1.928,2.205-1.928,2.617a12.385,12.385,0,0,1-2.205,3.513c-.758.758-4.41,3.1-4.823,3.721a21.625,21.625,0,0,1-4.064,3.169c-.543.206-4.133,1.585-4.686,1.928a16.4,16.4,0,0,1-3.437,1.033,23.209,23.209,0,0,1-3.789,0c-.543-.137-3.582-.827-4.133-1.033s-4.341-1.033-4.96-1.928a27.438,27.438,0,0,0-3.79-3.169,12.183,12.183,0,0,0-2.549-.826c-.62,0-3.031-.413-3.375,0a22.51,22.51,0,0,1-3.79,2.549c-.9.412-19.446,13.748-19.446,13.748s-17.087,11.988-17.431,12.194-10.059,7.854-10.2,8.2-.964,1.928-1.99,1.928a23.91,23.91,0,0,1-4.884-1.928s-5.031-2.342-5.168-3.1-4.823-4.884-5.029-5.1-1.241-1.722-1.241-1.722a14.561,14.561,0,0,0-2.48,1.1c-.206.275-7.717,4.616-7.717,4.616l-23.941,18.033-16.26,12.952c-.344.275-13.089,9.645-13.089,9.645s-11.23,8.2-11.644,8.475-6.613,4.685-6.613,4.685l-4.616,3.238-3.238,1.31-2.895-1.31-1.99-2.825-2.895-3.307a7.936,7.936,0,0,0-1.99.62c-.275.275-4.271,3.032-4.409,3.307" transform="translate(3647.382 -231.284)" fill="#fff"/>
    <g id="Festival-v-Telci" transform="translate(6029.326 1522.769)">
      <g id="Group_3" data-name="Group 3" transform="translate(0 0)">
        <path id="Path_4" data-name="Path 4" d="M8.832,59.834a3.761,3.761,0,0,1-2.637-1.1A3.569,3.569,0,0,1,5.022,56.02V-38.921a3.569,3.569,0,0,1,1.172-2.713,3.761,3.761,0,0,1,2.637-1.1H79.455a3.933,3.933,0,0,1,2.784,1.1,3.569,3.569,0,0,1,1.172,2.713V-20.31a3.643,3.643,0,0,1-1.172,2.637A3.8,3.8,0,0,1,79.455-16.5H35.938V-.383H76.524a3.933,3.933,0,0,1,2.784,1.1,3.569,3.569,0,0,1,1.172,2.713V21.89A3.569,3.569,0,0,1,79.308,24.6a3.933,3.933,0,0,1-2.784,1.1H35.938V56.024a3.756,3.756,0,0,1-3.813,3.813Zm92.6,0a3.761,3.761,0,0,1-2.637-1.1,3.569,3.569,0,0,1-1.172-2.713V-38.921A3.569,3.569,0,0,1,98.8-41.635a3.761,3.761,0,0,1,2.637-1.1h71.8a3.933,3.933,0,0,1,2.784,1.1,3.569,3.569,0,0,1,1.172,2.713v17.289a3.643,3.643,0,0,1-1.172,2.637,3.8,3.8,0,0,1-2.784,1.172H127.953V-3.313H170a3.933,3.933,0,0,1,2.784,1.1A3.569,3.569,0,0,1,173.961.5V16.324a3.569,3.569,0,0,1-1.172,2.713,3.933,3.933,0,0,1-2.784,1.1H127.953v14.8H174.4a4,4,0,0,1,3.956,3.956V56.035a3.569,3.569,0,0,1-1.172,2.713,3.933,3.933,0,0,1-2.784,1.085ZM233.888,61.3a65.727,65.727,0,0,1-25.567-4.323,35.254,35.254,0,0,1-15.238-11.282,26.41,26.41,0,0,1-5.347-14.726,3,3,0,0,1,3.077-3.077h23.3a6.608,6.608,0,0,1,3.223.66,14.617,14.617,0,0,1,2.491,1.832,19.961,19.961,0,0,0,3.075,3,13.133,13.133,0,0,0,4.542,2.2,23.259,23.259,0,0,0,6.447.807,23.778,23.778,0,0,0,10.4-1.831,5.6,5.6,0,0,0,3.663-5.056,5.065,5.065,0,0,0-1.979-4.1,19.175,19.175,0,0,0-6.666-2.93q-4.689-1.319-12.747-2.784a78.743,78.743,0,0,1-19.487-5.64A29.364,29.364,0,0,1,194.555,3.939a27.423,27.423,0,0,1-4.323-15.752,27.833,27.833,0,0,1,5.347-16.85,35.017,35.017,0,0,1,14.945-11.429,56.478,56.478,0,0,1,22.344-4.1,57.592,57.592,0,0,1,18.668,2.782,44.917,44.917,0,0,1,13.7,7.252,34.29,34.29,0,0,1,8.5,9.6,21.2,21.2,0,0,1,3.075,9.817,3.1,3.1,0,0,1-.953,2.27,2.941,2.941,0,0,1-2.124.953H249.273a6.523,6.523,0,0,1-2.93-.586,8.049,8.049,0,0,1-2.352-1.9,7.331,7.331,0,0,0-3.663-3.663,15.4,15.4,0,0,0-7.473-1.612,14.212,14.212,0,0,0-7.619,1.684,5.468,5.468,0,0,0-2.637,4.909,5.208,5.208,0,0,0,1.612,3.81,13.977,13.977,0,0,0,5.714,2.858q4.1,1.245,11.429,2.713a88.029,88.029,0,0,1,22.492,5.861,27.676,27.676,0,0,1,12.528,9.963A27.913,27.913,0,0,1,280.33,27.9a27.644,27.644,0,0,1-6,17.872,38.148,38.148,0,0,1-16.484,11.5A66.4,66.4,0,0,1,233.888,61.3ZM317.4,59.834a3.756,3.756,0,0,1-3.813-3.813v-71.5h-25.2a3.683,3.683,0,0,1-2.713-1.1,3.683,3.683,0,0,1-1.1-2.713v-19.63a3.683,3.683,0,0,1,1.1-2.713,3.683,3.683,0,0,1,2.713-1.1h82.348a3.683,3.683,0,0,1,2.713,1.1,3.683,3.683,0,0,1,1.1,2.713v19.634a3.683,3.683,0,0,1-1.1,2.713,3.683,3.683,0,0,1-2.713,1.1H345.537v71.5a3.753,3.753,0,0,1-3.811,3.813Zm72.821,0a3.761,3.761,0,0,1-2.637-1.1,3.569,3.569,0,0,1-1.172-2.713V-38.921a3.569,3.569,0,0,1,1.172-2.713,3.761,3.761,0,0,1,2.637-1.1h24.909a3.683,3.683,0,0,1,2.713,1.1,3.683,3.683,0,0,1,1.1,2.713V56.024a3.753,3.753,0,0,1-3.811,3.813Zm75.9,0a6.018,6.018,0,0,1-4.323-1.465,6.765,6.765,0,0,1-1.977-3.075L430.958-38.48a4.3,4.3,0,0,1-.147-1.026,3.1,3.1,0,0,1,.953-2.272,3.1,3.1,0,0,1,2.27-.953h22.711a5.546,5.546,0,0,1,4.1,1.465,7.167,7.167,0,0,1,1.9,2.93l17.289,61.1,17.289-61.1a7.165,7.165,0,0,1,1.9-2.93,5.546,5.546,0,0,1,4.1-1.465h22.711a2.867,2.867,0,0,1,2.2.953,3.235,3.235,0,0,1,.879,2.272,4.308,4.308,0,0,1-.146,1.026L500.259,55.291a6.766,6.766,0,0,1-1.979,3.075,6.018,6.018,0,0,1-4.321,1.465Zm52.894,0a2.867,2.867,0,0,1-2.2-.951,3.453,3.453,0,0,1-.733-3.3l33.407-93.773a8.5,8.5,0,0,1,2.051-3.075,5.546,5.546,0,0,1,4.1-1.465h26.813a5.754,5.754,0,0,1,4.249,1.465,7,7,0,0,1,1.9,3.075l33.553,93.773a3.256,3.256,0,0,1,.147,1.026,3.249,3.249,0,0,1-3.223,3.223H596.527a5,5,0,0,1-3.663-1.172,7.357,7.357,0,0,1-1.612-2.2l-4.542-12.3H551.4l-4.542,12.3a7.881,7.881,0,0,1-1.538,2.2,4.962,4.962,0,0,1-3.737,1.172Zm39.126-40.44h21.832L568.987-13.573Zm77.651,40.44a3.761,3.761,0,0,1-2.637-1.1,3.569,3.569,0,0,1-1.172-2.713V-38.921a3.569,3.569,0,0,1,1.172-2.713,3.761,3.761,0,0,1,2.637-1.1h24.322a3.933,3.933,0,0,1,2.784,1.1,3.569,3.569,0,0,1,1.172,2.713V33.753h42.345a3.932,3.932,0,0,1,2.784,1.1,3.569,3.569,0,0,1,1.172,2.713v18.46a3.568,3.568,0,0,1-1.172,2.713,3.933,3.933,0,0,1-2.784,1.1Zm130.4,0a6.018,6.018,0,0,1-4.321-1.465,6.765,6.765,0,0,1-1.979-3.075L731.033-38.48a4.308,4.308,0,0,1-.146-1.026,3.1,3.1,0,0,1,.951-2.272,3.1,3.1,0,0,1,2.272-.953h22.711a5.546,5.546,0,0,1,4.1,1.465,7.166,7.166,0,0,1,1.9,2.93l17.29,61.1,17.289-61.1a7.167,7.167,0,0,1,1.9-2.93,5.547,5.547,0,0,1,4.1-1.465h22.711a2.867,2.867,0,0,1,2.2.953,3.235,3.235,0,0,1,.879,2.272,4.3,4.3,0,0,1-.147,1.026L800.338,55.291a6.765,6.765,0,0,1-1.972,3.077,6.018,6.018,0,0,1-4.322,1.465Zm117.217,0A3.756,3.756,0,0,1,879.6,56.02v-71.5H854.4a3.683,3.683,0,0,1-2.713-1.1,3.683,3.683,0,0,1-1.1-2.713v-19.63a3.683,3.683,0,0,1,1.1-2.713,3.683,3.683,0,0,1,2.713-1.1h82.343a3.683,3.683,0,0,1,2.713,1.1,3.683,3.683,0,0,1,1.1,2.713v19.634a3.683,3.683,0,0,1-1.1,2.713,3.683,3.683,0,0,1-2.713,1.1h-25.2v71.5a3.756,3.756,0,0,1-3.813,3.813Zm72.821,0a3.761,3.761,0,0,1-2.638-1.1,3.569,3.569,0,0,1-1.172-2.713V-38.921a3.569,3.569,0,0,1,1.172-2.713,3.76,3.76,0,0,1,2.637-1.1h71.8a3.933,3.933,0,0,1,2.784,1.1,3.569,3.569,0,0,1,1.172,2.713v17.289a3.644,3.644,0,0,1-1.172,2.637,3.8,3.8,0,0,1-2.784,1.172H982.756V-3.317h42.052a3.932,3.932,0,0,1,2.784,1.1A3.569,3.569,0,0,1,1028.764.5V16.321a3.569,3.569,0,0,1-1.172,2.713,3.932,3.932,0,0,1-2.784,1.1H982.756v14.8H1029.2a4,4,0,0,1,3.956,3.956V56.031a3.569,3.569,0,0,1-1.172,2.713,3.932,3.932,0,0,1-2.784,1.089Zm95.678,0a3.761,3.761,0,0,1-2.637-1.1,3.569,3.569,0,0,1-1.172-2.713V-38.921a3.569,3.569,0,0,1,1.172-2.713,3.761,3.761,0,0,1,2.637-1.1h24.322a3.933,3.933,0,0,1,2.784,1.1,3.568,3.568,0,0,1,1.172,2.713V33.753h42.345a3.932,3.932,0,0,1,2.784,1.1,3.568,3.568,0,0,1,1.172,2.713v18.46a3.568,3.568,0,0,1-1.172,2.713,3.932,3.932,0,0,1-2.784,1.1ZM1179.682,61.3a63.067,63.067,0,0,1-24.322-4.323,35.7,35.7,0,0,1-16.336-13.114,42.384,42.384,0,0,1-6.512-22.271q-.147-6.007-.147-12.894t.147-13.187a41.452,41.452,0,0,1,6.651-22.051A36.848,36.848,0,0,1,1155.719-39.8a61.453,61.453,0,0,1,23.963-4.394,69.3,69.3,0,0,1,18.089,2.272,47.5,47.5,0,0,1,15.014,6.886,34.435,34.435,0,0,1,10.4,11.354,32.729,32.729,0,0,1,3.956,15.824,3.1,3.1,0,0,1-.953,2.27,3.1,3.1,0,0,1-2.27.953h-24.753a4.884,4.884,0,0,1-3.224-.879,6.892,6.892,0,0,1-1.758-3.075q-1.9-6.3-5.568-8.5a17.078,17.078,0,0,0-8.936-2.2,14.719,14.719,0,0,0-10.256,3.437q-3.81,3.437-4.1,12.087-.439,12.015,0,24.616.293,8.645,4.1,12.087a14.719,14.719,0,0,0,10.256,3.437,16.615,16.615,0,0,0,9.012-2.352,13.967,13.967,0,0,0,5.494-8.352,5.441,5.441,0,0,1,1.686-3.149,5.56,5.56,0,0,1,3.3-.807h24.762a3.234,3.234,0,0,1,2.27.879,2.867,2.867,0,0,1,.953,2.2,33.168,33.168,0,0,1-3.956,15.9,34.189,34.189,0,0,1-10.416,11.449,47.5,47.5,0,0,1-15.014,6.886A69.3,69.3,0,0,1,1179.682,61.3Zm-8.647-111.356a5.815,5.815,0,0,1-2.637-.586,10.778,10.778,0,0,1-2.637-2.051l-15.678-16.85a2.811,2.811,0,0,1-.879-2.051q0-2.352,2.2-2.352h8.938a17.372,17.372,0,0,1,2.713.219,10.8,10.8,0,0,1,2.714.807l13.187,6.74,13.187-6.74a13.513,13.513,0,0,1,2.784-.807,16.021,16.021,0,0,1,2.637-.219h8.938a2.073,2.073,0,0,1,1.766.585,2.073,2.073,0,0,1,.585,1.766,2.636,2.636,0,0,1-1.026,2.051l-15.678,16.85a10.776,10.776,0,0,1-2.637,2.051,5.814,5.814,0,0,1-2.637.586Zm73.405,109.891a3.761,3.761,0,0,1-2.637-1.1,3.569,3.569,0,0,1-1.172-2.713V-38.921a3.569,3.569,0,0,1,1.172-2.713,3.761,3.761,0,0,1,2.637-1.1h24.909a3.683,3.683,0,0,1,2.713,1.1,3.683,3.683,0,0,1,1.1,2.713V56.024a3.757,3.757,0,0,1-3.813,3.813Z" transform="translate(-5.022 73.969)" fill="#fff"/>
      </g>
    </g>
  </g>
</svg>
